<?xml version="1.0" encoding="utf-8"?>
<!-- Generator: Adobe Illustrator 25.4.1, SVG Export Plug-In . SVG Version: 6.00 Build 0)  -->
<svg version="1.1" id="Layer_1" xmlns="http://www.w3.org/2000/svg" xmlns:xlink="http://www.w3.org/1999/xlink" x="0px" y="0px"
	 viewBox="0 0 800 600" style="enable-background:new 0 0 800 600;" xml:space="preserve">
<style type="text/css">
	.st0{fill:none;stroke:#4D8A80;stroke-width:27.3;stroke-miterlimit:10;}
	.st1{clip-path:url(#SVGID_00000047767074787781170850000009115287279175350715_);}
	
		.st2{clip-path:url(#SVGID_00000143590728589482234900000015948979986353480114_);fill:none;stroke:#4D8A80;stroke-width:29.9;stroke-miterlimit:10;}
	.st3{fill:#4D8A80;}
	.st4{fill:#FCFDFF;}
	.st5{clip-path:url(#SVGID_00000023256408798529671450000012677302797306655154_);fill:#FCFDFF;}
	.st6{clip-path:url(#SVGID_00000108268921502167363150000011434317124606688921_);fill:#FCFDFF;}
</style>
<circle class="st0" cx="401.25" cy="290.86" r="261.45"/>
<g>
	<g>
		<defs>
			<path id="SVGID_1_" d="M486.28,504.6H316.23V77.11h170.05c0,19.39,0,38.78,0,58.18C486.28,258.39,486.28,381.5,486.28,504.6z"/>
		</defs>
		<clipPath id="SVGID_00000042730564175497188030000006374586669549863046_">
			<use xlink:href="#SVGID_1_"  style="overflow:visible;"/>
		</clipPath>
		<g style="clip-path:url(#SVGID_00000042730564175497188030000006374586669549863046_);">
			<g>
				<g>
					<defs>
						<rect id="SVGID_00000023985507611172784920000012575563377715615400_" x="341.34" y="61.66" width="272.56" height="145.52"/>
					</defs>
					<clipPath id="SVGID_00000118357735848394254010000002209044259139710379_">
						<use xlink:href="#SVGID_00000023985507611172784920000012575563377715615400_"  style="overflow:visible;"/>
					</clipPath>
					
						<path style="clip-path:url(#SVGID_00000118357735848394254010000002209044259139710379_);fill:none;stroke:#4D8A80;stroke-width:29.9;stroke-miterlimit:10;" d="
						M569.82,208.65c1.72-117.57-182.97-117.57-181.23,0.01C386.87,326.23,571.56,326.23,569.82,208.65z"/>
				</g>
				<rect x="373.68" y="206.68" class="st3" width="29.79" height="253.34"/>
			</g>
			<path class="st3" d="M409.4,348.88c-6.1-20.49,28.53-50.2,43.11-51.64C452.83,311.06,427.95,352.17,409.4,348.88z"/>
			<path class="st3" d="M367.35,320.86c6.1-20.49-28.53-50.2-43.11-51.64l0,0C323.93,283.04,348.81,324.15,367.35,320.86z"/>
			<path class="st3" d="M409.43,348.78c5.9-20.81,53.72-25.81,64.46-19.06C464.89,342.57,423.12,361.32,409.43,348.78z"/>
		</g>
	</g>
	<path id="XMLID_00000137125864681101847630000008228006418074019201_" class="st4" d="M403.45,218.58"/>
	<path id="XMLID_00000093154313868243492390000005211703997990884754_" class="st4" d="M408.47,220.19"/>
	<path id="XMLID_00000000202972653553063270000000557368392096105402_" class="st4" d="M403.46,212.68"/>
	<path class="st4" d="M403.46,363.7"/>
	<g>
		<defs>
			<rect id="SVGID_00000172436813843735568740000006174420248907197113_" x="373.6" y="359.08" width="29.89" height="10.16"/>
		</defs>
		<clipPath id="SVGID_00000128465040437900273900000011037271935614652288_">
			<use xlink:href="#SVGID_00000172436813843735568740000006174420248907197113_"  style="overflow:visible;"/>
		</clipPath>
		<polyline style="clip-path:url(#SVGID_00000128465040437900273900000011037271935614652288_);fill:#FCFDFF;" points="
			403.49,363.68 362.43,370 363.98,360.11 403.5,358.57 		"/>
	</g>
	<g>
		<defs>
			<path id="SVGID_00000168099409089787360570000001116345714691045791_" d="M373.92,199.21c0.17-0.25,0.47-0.42,0.8-0.41
				l28.04,0.29c0.53,0.01,0.95,0.43,0.94,0.96l-0.2,19.22c-0.01,0.52-0.44,0.94-0.96,0.94l-28.04-0.29
				c-0.53-0.01-0.95-0.43-0.94-0.96l0.2-19.22C373.76,199.54,373.82,199.36,373.92,199.21"/>
		</defs>
		<clipPath id="SVGID_00000047760418341036786120000000706009125697053582_">
			<use xlink:href="#SVGID_00000168099409089787360570000001116345714691045791_"  style="overflow:visible;"/>
		</clipPath>
		
			<polyline id="XMLID_00000075162732615062192550000015781539020427739830_" style="clip-path:url(#SVGID_00000047760418341036786120000000706009125697053582_);fill:#FCFDFF;" points="
			403.52,218.73 366.12,206.34 372.06,198.26 403.59,212.83 		"/>
	</g>
</g>
</svg>
